<svg width="113" height="113" viewBox="0 0 113 113" fill="none" xmlns="http://www.w3.org/2000/svg">
<ellipse cx="56.7777" cy="56.5" rx="56.2224" ry="56.5" fill="#335C81"/>
<g clip-path="url(#clip0_95_3)">
<path fill-rule="evenodd" clip-rule="evenodd" d="M84.0281 67.2258H89.5678C89.7138 67.2258 89.8539 67.2845 89.9571 67.389C90.0604 67.4935 90.1184 67.6352 90.1184 67.783V81.3783C90.1184 81.5261 90.0604 81.6678 89.9571 81.7723C89.8539 81.8768 89.7138 81.9355 89.5678 81.9355H84.0281C83.882 81.9355 83.742 81.8768 83.6387 81.7723C83.5354 81.6678 83.4774 81.5261 83.4774 81.3783V67.7718C83.4774 67.6241 83.5354 67.4823 83.6387 67.3779C83.742 67.2734 83.882 67.2147 84.0281 67.2147V67.2258ZM63.323 51.1455C63.9231 50.9788 64.5586 50.9961 65.149 51.1951C65.7394 51.3942 66.2582 51.766 66.6396 52.2635C67.0211 52.7611 67.248 53.3619 67.2917 53.9901C67.3354 54.6182 67.1939 55.2453 66.8852 55.792C66.5764 56.3387 66.1143 56.7804 65.5573 57.0612C65.0003 57.342 64.3734 57.4492 63.7562 57.3693C63.1389 57.2894 62.5589 57.026 62.0897 56.6123C61.6205 56.1987 61.2831 55.6535 61.1203 55.0457C60.9027 54.233 61.0123 53.3661 61.4252 52.6351C61.838 51.904 62.5205 51.3683 63.323 51.1455ZM82.4256 57.6478L71.7868 67.4543L70.4872 66.0446L78.0643 59.0352L78.169 58.946C78.5182 58.6154 78.7236 58.1582 78.7401 57.6746C78.7566 57.191 78.5829 56.7205 78.2571 56.3663L65.9167 41.144L67.7173 39.4724L82.4256 57.6478ZM22.8215 36.3578L27.8106 35.0205C27.9412 34.9865 28.0799 35.0061 28.1964 35.0749C28.3129 35.1438 28.3979 35.2564 28.4328 35.3883L31.6762 47.6463C31.6937 47.7115 31.6983 47.7794 31.6898 47.8464C31.6813 47.9133 31.6597 47.9779 31.6265 48.0364C31.5932 48.0949 31.5489 48.1461 31.496 48.1872C31.4431 48.2284 31.3827 48.2585 31.3183 48.276L26.3293 49.6188C26.2649 49.6365 26.1977 49.6411 26.1316 49.6325C26.0654 49.6239 26.0016 49.6021 25.9438 49.5684C25.886 49.5348 25.8353 49.4899 25.7947 49.4364C25.754 49.3829 25.7243 49.3218 25.707 49.2566L22.4471 37.0041C22.4273 36.9368 22.4214 36.866 22.4297 36.7963C22.438 36.7265 22.4605 36.6593 22.4956 36.5987C22.5307 36.5381 22.5778 36.4854 22.6338 36.444C22.6899 36.4025 22.7538 36.3732 22.8215 36.3578ZM30.1564 36.7367C30.0876 36.5307 30.0876 36.3075 30.1564 36.1015C30.3656 35.5721 31.1751 35.4941 31.6762 35.3548C32.194 35.2247 32.6963 35.0379 33.174 34.7977C33.8667 34.4007 34.5327 33.9577 35.1675 33.4716C36.8195 32.3126 38.3558 31.3431 39.9638 30.2287C43.5431 27.7103 42.271 27.7158 46.8416 28.3622C48.8067 28.6412 50.7526 29.045 52.6676 29.5713C52.9381 29.6377 53.199 29.7388 53.4441 29.8721C53.6908 30.0254 53.9151 30.213 54.1104 30.4293C56.313 32.307 58.2459 34.2739 60.1677 36.263C60.8175 36.9651 61.1974 37.695 61.0322 38.2633C60.3549 40.6035 57.4199 38.3302 54.5729 37.0654C53.378 36.5082 51.8196 36.185 50.476 35.6891C48.824 35.4607 47.9815 35.054 46.3074 35.132C43.8129 35.5777 44.5453 39.1716 47.7887 38.4305C49.9914 37.929 54.9969 38.7091 56.737 40.2079C58.389 41.6009 58.1633 43.4674 55.7569 44.0525L53.6588 44.2141C50.3163 44.476 50.3548 44.3255 47.227 45.8466C45.5365 46.6657 43.7634 47.5182 41.836 47.6686C40.6686 47.7633 39.9583 47.468 38.7578 46.9721C38.1575 46.6715 37.5258 46.4398 36.8745 46.2812C36.3479 46.1289 35.8032 46.0501 35.2556 46.0472C34.4406 46.0472 33.4384 46.6044 32.8161 46.0472C32.6424 45.8831 32.5183 45.6725 32.4582 45.4399L30.1564 36.7367ZM62.4199 40.3806L77.1723 57.7369L65.8285 68.1953L49.8592 49.4349L53.3449 46.2255L56.3185 45.9915L56.5774 45.9469C57.3325 45.7804 58.0428 45.4496 58.6589 44.9774L55.1126 48.2481C55.5178 48.6981 55.7298 49.2925 55.7019 49.9007C55.6741 50.5088 55.4086 51.0808 54.9639 51.4909L64.2977 62.8519C64.7421 62.4436 65.3284 62.2301 65.9281 62.2583C66.5278 62.2865 67.0919 62.5541 67.4971 63.0023L71.9795 58.8625C71.779 58.6401 71.6238 58.38 71.5227 58.0969C71.4217 57.8138 71.3768 57.5133 71.3906 57.2127C71.4044 56.912 71.4767 56.617 71.6032 56.3446C71.7298 56.0723 71.9082 55.8278 72.1282 55.6252L62.8219 44.2586C62.602 44.4624 62.3446 44.6201 62.0643 44.7229C61.784 44.8256 61.4864 44.8713 61.1886 44.8573C60.8908 44.8433 60.5986 44.77 60.3289 44.6414C60.0592 44.5128 59.8173 44.3316 59.617 44.1082L59.0664 44.6208C59.117 44.5696 59.1647 44.5157 59.2095 44.4592C59.5464 44.05 59.7806 43.5645 59.8924 43.044C60.014 42.5312 60.014 41.9966 59.8924 41.4839C59.8488 41.2942 59.7917 41.108 59.7217 40.9267C60.823 41.1496 61.7316 41.0325 62.4144 40.3695L62.4199 40.3806ZM81.7263 80.7375V68.4516H76.2416C73.9288 68.8695 71.616 70.1232 69.2977 71.6164H65.0576C63.1358 71.7334 62.1281 73.7003 63.9948 74.993C65.4816 76.1073 67.4475 76.0349 69.4574 75.8566C70.8451 75.7842 70.9057 77.673 69.4574 77.6786C68.9563 77.7176 68.4112 77.595 67.9321 77.595C65.399 77.5894 63.3561 77.1103 62.095 75.1044L61.4618 73.6L55.1401 70.4352C51.9848 69.3821 49.7436 72.7252 52.0674 75.0542C56.4685 78.3012 61.1757 81.1007 66.1204 83.412C69.6061 85.5516 73.0863 85.4792 76.5831 83.412L81.7208 80.7264L81.7263 80.7375Z" fill="white"/>
</g>
<defs>
<clipPath id="clip0_95_3">
<rect width="67.6658" height="57" fill="white" transform="translate(22.4472 28)"/>
</clipPath>
</defs>
</svg>
