<svg width="113" height="113" viewBox="0 0 113 113" fill="none" xmlns="http://www.w3.org/2000/svg">
<ellipse cx="56.6327" cy="56.5" rx="56.2224" ry="56.5" fill="#335C81"/>
<path d="M81.5098 31.3333H30.7605C30.0127 31.3333 29.2956 31.6318 28.7668 32.1632C28.2381 32.6945 27.941 33.4152 27.941 34.1667V73.8333C27.941 74.5848 28.2381 75.3054 28.7668 75.8368C29.2956 76.3682 30.0127 76.6667 30.7605 76.6667H81.5098C82.2576 76.6667 82.9747 76.3682 83.5035 75.8368C84.0322 75.3054 84.3292 74.5848 84.3292 73.8333V34.1667C84.3292 33.4152 84.0322 32.6945 83.5035 32.1632C82.9747 31.6318 82.2576 31.3333 81.5098 31.3333ZM78.6904 62.5C76.4472 62.5 74.2958 63.3955 72.7096 64.9896C71.1233 66.5836 70.2322 68.7457 70.2322 71H42.0381C42.0381 68.7457 41.147 66.5836 39.5607 64.9896C37.9745 63.3955 35.8231 62.5 33.5799 62.5V45.5C35.8231 45.5 37.9745 44.6045 39.5607 43.0104C41.147 41.4163 42.0381 39.2543 42.0381 37H70.2322C70.2322 39.2543 71.1233 41.4163 72.7096 43.0104C74.2958 44.6045 76.4472 45.5 78.6904 45.5V62.5Z" fill="white"/>
<path d="M56.1351 42.6667C49.9155 42.6667 44.8575 47.7497 44.8575 54C44.8575 60.2503 49.9155 65.3333 56.1351 65.3333C62.3548 65.3333 67.4128 60.2503 67.4128 54C67.4128 47.7497 62.3548 42.6667 56.1351 42.6667ZM56.1351 59.6667C53.0253 59.6667 50.4963 57.1252 50.4963 54C50.4963 50.8748 53.0253 48.3333 56.1351 48.3333C59.2449 48.3333 61.774 50.8748 61.774 54C61.774 57.1252 59.2449 59.6667 56.1351 59.6667Z" fill="white"/>
</svg>
