<svg width="113" height="113" viewBox="0 0 113 113" fill="none" xmlns="http://www.w3.org/2000/svg">
<ellipse cx="56.4877" cy="56.5" rx="56.2224" ry="56.5" fill="#335C81"/>
<path d="M29.8333 54.7407H54.2778V32.2222H29.8333V54.7407ZM35.9444 37.8519H48.1667V49.1111H35.9444V37.8519Z" fill="white"/>
<path d="M29.8333 82.8889H54.2778V60.3704H29.8333V82.8889ZM35.9444 66H48.1667V77.2593H35.9444V66Z" fill="white"/>
<path d="M60.3889 32.2222V54.7407H84.8333V32.2222H60.3889ZM78.7222 49.1111H66.5V37.8519H78.7222V49.1111Z" fill="white"/>
<path d="M84.8333 77.2592H78.7222V82.8889H84.8333V77.2592Z" fill="white"/>
<path d="M66.5 60.3704H60.3889V66H66.5V60.3704Z" fill="white"/>
<path d="M72.6111 66H66.5V71.6296H72.6111V66Z" fill="white"/>
<path d="M66.5 71.6296H60.3889V77.2593H66.5V71.6296Z" fill="white"/>
<path d="M72.6111 77.2592H66.5V82.8889H72.6111V77.2592Z" fill="white"/>
<path d="M78.7222 71.6296H72.6111V77.2593H78.7222V71.6296Z" fill="white"/>
<path d="M78.7222 60.3704H72.6111V66H78.7222V60.3704Z" fill="white"/>
<path d="M84.8333 66H78.7222V71.6296H84.8333V66Z" fill="white"/>
</svg>
