<svg width="72" height="72" viewBox="0 0 72 72" fill="none" xmlns="http://www.w3.org/2000/svg">
<path fill-rule="evenodd" clip-rule="evenodd" d="M22.2135 52.071C32.481 50.571 39.5505 50.7 49.8315 52.1235C50.576 52.2314 51.2564 52.6051 51.7469 53.1756C52.2374 53.746 52.5049 54.4747 52.5 55.227C52.5 55.947 52.2525 56.646 51.8055 57.192C51.0264 58.144 50.2282 59.0801 49.4115 60H53.373C53.622 59.703 53.8725 59.4 54.126 59.0925C55.0157 58.0014 55.5011 56.6364 55.5 55.2285C55.5 52.191 53.283 49.5735 50.2425 49.1535C39.7185 47.697 32.3625 47.5575 21.78 49.104C18.708 49.5525 16.5 52.2105 16.5 55.269C16.5 56.6265 16.9425 57.969 17.781 59.0565C18.0285 59.3775 18.273 59.6925 18.516 60.0015H22.3815C21.6216 59.0918 20.8805 58.1666 20.1585 57.2265C19.7294 56.6637 19.498 55.9752 19.5 55.2675C19.5 53.652 20.661 52.2975 22.2135 52.071ZM36 37.5C37.1819 37.5 38.3522 37.2672 39.4442 36.8149C40.5361 36.3626 41.5282 35.6997 42.364 34.864C43.1997 34.0282 43.8626 33.0361 44.3149 31.9442C44.7672 30.8522 45 29.6819 45 28.5C45 27.3181 44.7672 26.1478 44.3149 25.0558C43.8626 23.9639 43.1997 22.9718 42.364 22.136C41.5282 21.3003 40.5361 20.6374 39.4442 20.1851C38.3522 19.7328 37.1819 19.5 36 19.5C33.6131 19.5 31.3239 20.4482 29.636 22.136C27.9482 23.8239 27 26.1131 27 28.5C27 30.8869 27.9482 33.1761 29.636 34.864C31.3239 36.5518 33.6131 37.5 36 37.5ZM36 40.5C39.1826 40.5 42.2348 39.2357 44.4853 36.9853C46.7357 34.7348 48 31.6826 48 28.5C48 25.3174 46.7357 22.2652 44.4853 20.0147C42.2348 17.7643 39.1826 16.5 36 16.5C32.8174 16.5 29.7652 17.7643 27.5147 20.0147C25.2643 22.2652 24 25.3174 24 28.5C24 31.6826 25.2643 34.7348 27.5147 36.9853C29.7652 39.2357 32.8174 40.5 36 40.5Z" fill="#335C81"/>
<path fill-rule="evenodd" clip-rule="evenodd" d="M36 63C50.9115 63 63 50.9115 63 36C63 21.0885 50.9115 9 36 9C21.0885 9 9 21.0885 9 36C9 50.9115 21.0885 63 36 63ZM36 66C52.569 66 66 52.569 66 36C66 19.431 52.569 6 36 6C19.431 6 6 19.431 6 36C6 52.569 19.431 66 36 66Z" fill="#335C81"/>
</svg>
